<svg id="visual" viewBox="0 0 900 600" width="900" height="600" xmlns="http://www.w3.org/2000/svg" xmlns:xlink="http://www.w3.org/1999/xlink" version="1.1"><rect x="0" y="0" width="900" height="600" fill="#002233"></rect><path d="M0 417L21.5 418C43 419 86 421 128.8 438.8C171.7 456.7 214.3 490.3 257.2 495.8C300 501.3 343 478.7 385.8 468.5C428.7 458.3 471.3 460.7 514.2 470.3C557 480 600 497 642.8 487.8C685.7 478.7 728.3 443.3 771.2 431.5C814 419.7 857 431.3 878.5 437.2L900 443L900 601L878.5 601C857 601 814 601 771.2 601C728.3 601 685.7 601 642.8 601C600 601 557 601 514.2 601C471.3 601 428.7 601 385.8 601C343 601 300 601 257.2 601C214.3 601 171.7 601 128.8 601C86 601 43 601 21.5 601L0 601Z" fill="#0066FF" stroke-linecap="round" stroke-linejoin="miter"></path></svg>