<svg id="visual" viewBox="0 0 900 600" width="900" height="600" xmlns="http://www.w3.org/2000/svg" xmlns:xlink="http://www.w3.org/1999/xlink" version="1.1"><rect x="0" y="0" width="900" height="600" fill="#002233"></rect><path d="M0 483L21.5 486.3C43 489.7 86 496.3 128.8 496.5C171.7 496.7 214.3 490.3 257.2 476.8C300 463.3 343 442.7 385.8 436.8C428.7 431 471.3 440 514.2 440C557 440 600 431 642.8 442.8C685.7 454.7 728.3 487.3 771.2 484.3C814 481.3 857 442.7 878.5 423.3L900 404L900 601L878.5 601C857 601 814 601 771.2 601C728.3 601 685.7 601 642.8 601C600 601 557 601 514.2 601C471.3 601 428.7 601 385.8 601C343 601 300 601 257.2 601C214.3 601 171.7 601 128.8 601C86 601 43 601 21.5 601L0 601Z" fill="#0066FF" stroke-linecap="round" stroke-linejoin="miter"></path></svg>