<svg id="visual" viewBox="0 0 900 600" width="900" height="600" xmlns="http://www.w3.org/2000/svg" xmlns:xlink="http://www.w3.org/1999/xlink" version="1.1"><rect x="0" y="0" width="900" height="600" fill="#002233"></rect><path d="M0 376L21.5 383.8C43 391.7 86 407.3 128.8 408.7C171.7 410 214.3 397 257.2 392.2C300 387.3 343 390.7 385.8 409.7C428.7 428.7 471.3 463.3 514.2 466.3C557 469.3 600 440.7 642.8 438C685.7 435.3 728.3 458.7 771.2 465.5C814 472.3 857 462.7 878.5 457.8L900 453L900 601L878.5 601C857 601 814 601 771.2 601C728.3 601 685.7 601 642.8 601C600 601 557 601 514.2 601C471.3 601 428.7 601 385.8 601C343 601 300 601 257.2 601C214.3 601 171.7 601 128.8 601C86 601 43 601 21.5 601L0 601Z" fill="#0066FF" stroke-linecap="round" stroke-linejoin="miter"></path></svg>